<svg width="450" height="526" viewBox="0 0 450 526" fill="none" xmlns="http://www.w3.org/2000/svg">
<mask id="mask0_4072_32950" style="mask-type:alpha" maskUnits="userSpaceOnUse" x="0" y="0" width="450" height="450">
<circle cx="225" cy="225" r="225" fill="#C4C4C4"/>
</mask>
<g mask="url(#mask0_4072_32950)">
<path d="M2.28286e-05 -2.1855e-08L3.15905e-06 450H1L1.00002 2.1855e-08L2.28286e-05 -2.1855e-08ZM30 -2.11928e-08L30 450H31L31 2.11928e-08L30 -2.11928e-08ZM60 -2.11928e-08L60 450H61L61 2.11928e-08L60 -2.11928e-08ZM90 -2.54313e-08L90 450H91L91 2.54313e-08L90 -2.54313e-08ZM120 -2.54313e-08L120 450H121L121 2.54313e-08L120 -2.54313e-08ZM150 -1.69542e-08L150 450H151L151 1.69542e-08L150 -1.69542e-08ZM180 -1.69542e-08L180 450H181L181 1.69542e-08L180 -1.69542e-08ZM210 -1.69542e-08L210 450H211L211 1.69542e-08L210 -1.69542e-08ZM240 -1.69542e-08L240 450H241L241 1.69542e-08L240 -1.69542e-08ZM270 -3.39084e-08L270 450H271L271 3.39084e-08L270 -3.39084e-08ZM300 -3.39084e-08L300 450H301L301 3.39084e-08L300 -3.39084e-08ZM330 -3.39084e-08L330 450H331L331 3.39084e-08L330 -3.39084e-08ZM360 -3.39084e-08L360 450H361L361 3.39084e-08L360 -3.39084e-08ZM390 -3.39084e-08L390 450H391L391 3.39084e-08L390 -3.39084e-08ZM420 -3.39084e-08L420 450H421L421 3.39084e-08L420 -3.39084e-08ZM450 -3.39084e-08L450 450H451L451 3.39084e-08L450 -3.39084e-08ZM450 -2.98023e-08H0V1H450V-2.98023e-08ZM450 25H0V26H450V25ZM450 50H0V51H450V50ZM450 75H0V76H450V75ZM450 100H0V101H450V100ZM450 125H0V126H450V125ZM450 150H0V151H450V150ZM450 175H0V176H450V175ZM450 200H0V201H450V200ZM450 225H0V226H450V225ZM450 250H0V251H450V250ZM450 275H0V276H450V275ZM450 300H0V301H450V300ZM450 325H0V326H450V325ZM450 350H0V351H450V350ZM450 375H0V376H450V375ZM450 400H0V401H450V400ZM450 425H0V426H450V425ZM450 450H0V451H450V450Z" fill="url(#paint0_linear_4072_32950)"/>
<path d="M-9 193.303L110.013 112.452C125.312 102.059 146.139 106.035 156.532 121.334V121.334C166.925 136.633 187.753 140.609 203.051 130.216L357.339 25.4013" stroke="white" stroke-width="5" stroke-linecap="round"/>
<circle cx="225" cy="225" r="217.5" stroke="url(#paint1_linear_4072_32950)" stroke-width="15"/>
<line x1="231.478" y1="105.516" x2="340.512" y2="330.563" stroke="white" stroke-width="110" stroke-linecap="round"/>
<circle r="82" transform="matrix(-1 0 0 1 142 309)" fill="white"/>
</g>
<path d="M18.6372 517L30.3912 487.3H33.7932L45.5472 517H41.6052L38.3112 508.342H25.8732L22.5612 517H18.6372ZM27.1152 505.12H37.0692L32.0832 492.178L27.1152 505.12ZM58.4568 517V487.3H65.5848C67.6968 487.3 69.6588 487.678 71.4708 488.434C73.2828 489.19 74.8668 490.246 76.2228 491.602C77.5908 492.946 78.6528 494.524 79.4088 496.336C80.1768 498.136 80.5608 500.08 80.5608 502.168C80.5608 504.256 80.1828 506.2 79.4268 508C78.6708 509.8 77.6088 511.378 76.2408 512.734C74.8848 514.078 73.2948 515.128 71.4708 515.884C69.6588 516.628 67.6968 517 65.5848 517H58.4568ZM62.1108 513.724H65.2248C66.8448 513.724 68.3508 513.436 69.7428 512.86C71.1348 512.272 72.3468 511.456 73.3788 510.412C74.4228 509.356 75.2328 508.126 75.8088 506.722C76.3848 505.318 76.6728 503.794 76.6728 502.15C76.6728 500.506 76.3848 498.982 75.8088 497.578C75.2328 496.174 74.4228 494.95 73.3788 493.906C72.3468 492.862 71.1348 492.046 69.7428 491.458C68.3508 490.87 66.8448 490.576 65.2248 490.576H62.1108V513.724ZM123.929 517.576C121.853 517.576 119.909 517.18 118.097 516.388C116.285 515.596 114.695 514.498 113.327 513.094C111.959 511.678 110.885 510.04 110.105 508.18C109.337 506.308 108.953 504.304 108.953 502.168C108.953 500.02 109.337 498.016 110.105 496.156C110.885 494.296 111.959 492.664 113.327 491.26C114.695 489.844 116.285 488.74 118.097 487.948C119.909 487.156 121.853 486.76 123.929 486.76C126.005 486.76 127.949 487.156 129.761 487.948C131.573 488.74 133.163 489.844 134.531 491.26C135.899 492.664 136.967 494.296 137.735 496.156C138.515 498.016 138.905 500.02 138.905 502.168C138.905 504.304 138.515 506.308 137.735 508.18C136.967 510.04 135.899 511.678 134.531 513.094C133.163 514.498 131.573 515.596 129.761 516.388C127.949 517.18 126.005 517.576 123.929 517.576ZM123.929 514.048C125.489 514.048 126.935 513.748 128.267 513.148C129.611 512.548 130.781 511.714 131.777 510.646C132.785 509.566 133.565 508.306 134.117 506.866C134.681 505.414 134.963 503.848 134.963 502.168C134.963 500.488 134.681 498.928 134.117 497.488C133.565 496.036 132.785 494.776 131.777 493.708C130.781 492.628 129.611 491.788 128.267 491.188C126.935 490.588 125.489 490.288 123.929 490.288C122.369 490.288 120.917 490.588 119.573 491.188C118.241 491.788 117.071 492.628 116.063 493.708C115.067 494.776 114.287 496.036 113.723 497.488C113.171 498.928 112.895 500.488 112.895 502.168C112.895 503.848 113.171 505.414 113.723 506.866C114.287 508.306 115.067 509.566 116.063 510.646C117.071 511.714 118.241 512.548 119.573 513.148C120.917 513.748 122.369 514.048 123.929 514.048ZM153.051 517V487.3H161.475C163.419 487.3 165.111 487.636 166.551 488.308C167.991 488.98 169.107 489.952 169.899 491.224C170.703 492.496 171.105 494.044 171.105 495.868C171.105 497.668 170.703 499.24 169.899 500.584C169.107 501.916 167.991 502.948 166.551 503.68C165.111 504.412 163.419 504.778 161.475 504.778H156.705V517H153.051ZM156.705 501.772H160.485C161.829 501.772 163.011 501.544 164.031 501.088C165.063 500.632 165.867 499.972 166.443 499.108C167.031 498.244 167.325 497.194 167.325 495.958C167.325 494.71 167.031 493.666 166.443 492.826C165.867 491.974 165.063 491.332 164.031 490.9C163.011 490.468 161.829 490.252 160.485 490.252H156.705V501.772ZM184.782 517V487.3H200.208V490.522H188.436V500.512H199.776V503.716H188.436V513.778H200.208V517H184.782ZM214.79 517V487.3H223.214C225.182 487.3 226.886 487.642 228.326 488.326C229.766 489.01 230.876 489.994 231.656 491.278C232.448 492.55 232.844 494.08 232.844 495.868C232.844 497.428 232.538 498.814 231.926 500.026C231.314 501.238 230.438 502.228 229.298 502.996C228.17 503.764 226.82 504.268 225.248 504.508L235.076 517H230.432L221.234 504.886H218.444V517H214.79ZM218.444 501.772H222.224C223.64 501.772 224.858 501.538 225.878 501.07C226.898 500.602 227.684 499.936 228.236 499.072C228.788 498.196 229.064 497.158 229.064 495.958C229.064 494.17 228.458 492.772 227.246 491.764C226.046 490.756 224.372 490.252 222.224 490.252H218.444V501.772ZM244.267 517L256.021 487.3H259.423L271.177 517H267.235L263.941 508.342H251.503L248.191 517H244.267ZM252.745 505.12H262.699L257.713 492.178L252.745 505.12ZM287.98 517V490.576H279.376V487.3H300.256V490.576H291.634V517H287.98ZM313.321 517V487.3H316.975V517H313.321ZM346.079 517.576C344.003 517.576 342.059 517.18 340.247 516.388C338.435 515.596 336.845 514.498 335.477 513.094C334.109 511.678 333.035 510.04 332.255 508.18C331.487 506.308 331.103 504.304 331.103 502.168C331.103 500.02 331.487 498.016 332.255 496.156C333.035 494.296 334.109 492.664 335.477 491.26C336.845 489.844 338.435 488.74 340.247 487.948C342.059 487.156 344.003 486.76 346.079 486.76C348.155 486.76 350.099 487.156 351.911 487.948C353.723 488.74 355.313 489.844 356.681 491.26C358.049 492.664 359.117 494.296 359.885 496.156C360.665 498.016 361.055 500.02 361.055 502.168C361.055 504.304 360.665 506.308 359.885 508.18C359.117 510.04 358.049 511.678 356.681 513.094C355.313 514.498 353.723 515.596 351.911 516.388C350.099 517.18 348.155 517.576 346.079 517.576ZM346.079 514.048C347.639 514.048 349.085 513.748 350.417 513.148C351.761 512.548 352.931 511.714 353.927 510.646C354.935 509.566 355.715 508.306 356.267 506.866C356.831 505.414 357.113 503.848 357.113 502.168C357.113 500.488 356.831 498.928 356.267 497.488C355.715 496.036 354.935 494.776 353.927 493.708C352.931 492.628 351.761 491.788 350.417 491.188C349.085 490.588 347.639 490.288 346.079 490.288C344.519 490.288 343.067 490.588 341.723 491.188C340.391 491.788 339.221 492.628 338.213 493.708C337.217 494.776 336.437 496.036 335.873 497.488C335.321 498.928 335.045 500.488 335.045 502.168C335.045 503.848 335.321 505.414 335.873 506.866C336.437 508.306 337.217 509.566 338.213 510.646C339.221 511.714 340.391 512.548 341.723 513.148C343.067 513.748 344.519 514.048 346.079 514.048ZM375.201 517V487.3H378.855L393.867 510.826V487.3H397.521V517H393.867L378.855 493.492V517H375.201ZM420.379 517.576C418.891 517.576 417.565 517.372 416.401 516.964C415.237 516.544 414.235 516.034 413.395 515.434C412.555 514.834 411.865 514.246 411.325 513.67C410.785 513.082 410.389 512.62 410.137 512.284L412.135 509.44C412.411 509.776 412.783 510.208 413.251 510.736C413.719 511.264 414.295 511.792 414.979 512.32C415.663 512.848 416.461 513.292 417.373 513.652C418.285 514.012 419.317 514.192 420.469 514.192C421.561 514.192 422.551 514 423.439 513.616C424.327 513.232 425.035 512.662 425.563 511.906C426.103 511.15 426.373 510.214 426.373 509.098C426.373 508.15 426.181 507.346 425.797 506.686C425.413 506.014 424.879 505.438 424.195 504.958C423.511 504.478 422.713 504.04 421.801 503.644C420.889 503.236 419.905 502.828 418.849 502.42C418.105 502.12 417.349 501.772 416.581 501.376C415.813 500.968 415.105 500.476 414.457 499.9C413.809 499.312 413.287 498.616 412.891 497.812C412.495 497.008 412.297 496.06 412.297 494.968C412.297 493.864 412.507 492.82 412.927 491.836C413.347 490.852 413.941 489.982 414.709 489.226C415.477 488.458 416.389 487.858 417.445 487.426C418.513 486.982 419.695 486.76 420.991 486.76C422.143 486.76 423.229 486.94 424.249 487.3C425.281 487.66 426.199 488.122 427.003 488.686C427.807 489.238 428.449 489.82 428.929 490.432L427.219 493.114C426.823 492.598 426.319 492.112 425.707 491.656C425.095 491.188 424.393 490.81 423.601 490.522C422.809 490.234 421.957 490.09 421.045 490.09C419.929 490.09 418.981 490.324 418.201 490.792C417.433 491.248 416.845 491.842 416.437 492.574C416.029 493.306 415.825 494.086 415.825 494.914C415.825 495.658 415.975 496.288 416.275 496.804C416.587 497.32 417.001 497.758 417.517 498.118C418.033 498.478 418.615 498.796 419.263 499.072C419.911 499.348 420.577 499.612 421.261 499.864C422.485 500.344 423.643 500.842 424.735 501.358C425.827 501.862 426.787 502.456 427.615 503.14C428.443 503.812 429.091 504.622 429.559 505.57C430.039 506.518 430.279 507.664 430.279 509.008C430.279 510.82 429.847 512.368 428.983 513.652C428.131 514.924 426.961 515.896 425.473 516.568C423.985 517.24 422.287 517.576 420.379 517.576Z" fill="white"/>
<path d="M34.7088 467L50.6208 427.4H57.8448L73.7328 467H65.3568L61.9968 457.976H46.4448L43.0848 467H34.7088ZM49.1088 451.16H59.3568L54.2208 437.888L49.1088 451.16ZM86.3103 467V427.4H97.1823C99.9983 427.4 102.614 427.904 105.03 428.912C107.446 429.92 109.558 431.328 111.366 433.136C113.19 434.944 114.606 437.048 115.614 439.448C116.638 441.848 117.15 444.44 117.15 447.224C117.15 450.024 116.646 452.624 115.638 455.024C114.63 457.408 113.214 459.504 111.39 461.312C109.582 463.104 107.462 464.504 105.03 465.512C102.614 466.504 99.9983 467 97.1823 467H86.3103ZM94.0863 460.04H96.3183C98.1103 460.04 99.7663 459.72 101.286 459.08C102.806 458.44 104.126 457.544 105.246 456.392C106.366 455.24 107.238 453.888 107.862 452.336C108.486 450.768 108.798 449.056 108.798 447.2C108.798 445.36 108.486 443.664 107.862 442.112C107.238 440.544 106.366 439.184 105.246 438.032C104.126 436.864 102.806 435.96 101.286 435.32C99.7663 434.68 98.1103 434.36 96.3183 434.36H94.0863V460.04ZM126.758 467L142.67 427.4H149.894L165.782 467H157.406L154.046 457.976H138.494L135.134 467H126.758ZM141.158 451.16H151.406L146.27 437.888L141.158 451.16ZM178.36 467V427.4H189.232C192.048 427.4 194.664 427.904 197.08 428.912C199.496 429.92 201.608 431.328 203.416 433.136C205.24 434.944 206.656 437.048 207.664 439.448C208.688 441.848 209.2 444.44 209.2 447.224C209.2 450.024 208.696 452.624 207.688 455.024C206.68 457.408 205.264 459.504 203.44 461.312C201.632 463.104 199.512 464.504 197.08 465.512C194.664 466.504 192.048 467 189.232 467H178.36ZM186.136 460.04H188.368C190.16 460.04 191.816 459.72 193.336 459.08C194.856 458.44 196.176 457.544 197.296 456.392C198.416 455.24 199.288 453.888 199.912 452.336C200.536 450.768 200.848 449.056 200.848 447.2C200.848 445.36 200.536 443.664 199.912 442.112C199.288 440.544 198.416 439.184 197.296 438.032C196.176 436.864 194.856 435.96 193.336 435.32C191.816 434.68 190.16 434.36 188.368 434.36H186.136V460.04ZM218.808 467L234.72 427.4H241.944L257.832 467H249.456L246.096 457.976H230.544L227.184 467H218.808ZM233.208 451.16H243.456L238.32 437.888L233.208 451.16ZM270.409 467V427.4H283.897C286.473 427.4 288.761 427.848 290.761 428.744C292.761 429.64 294.337 430.976 295.489 432.752C296.641 434.512 297.217 436.712 297.217 439.352C297.217 441.976 296.641 444.216 295.489 446.072C294.337 447.928 292.761 449.352 290.761 450.344C288.761 451.32 286.473 451.808 283.897 451.808H278.185V467H270.409ZM278.185 445.592H281.497C282.857 445.592 284.105 445.392 285.241 444.992C286.393 444.592 287.321 443.952 288.025 443.072C288.729 442.192 289.081 441.032 289.081 439.592C289.081 438.136 288.729 436.976 288.025 436.112C287.321 435.232 286.393 434.6 285.241 434.216C284.105 433.816 282.857 433.616 281.497 433.616H278.185V445.592ZM314.385 467V434.264H304.353V427.4H332.193V434.264H322.137V467H314.385ZM345.208 467V427.4H367.24V434.216H352.984V443.744H366.664V450.56H352.984V460.184H367.24V467H345.208ZM383.475 467V427.4H394.347C397.163 427.4 399.779 427.904 402.195 428.912C404.611 429.92 406.723 431.328 408.531 433.136C410.355 434.944 411.771 437.048 412.779 439.448C413.803 441.848 414.315 444.44 414.315 447.224C414.315 450.024 413.811 452.624 412.803 455.024C411.795 457.408 410.379 459.504 408.555 461.312C406.747 463.104 404.627 464.504 402.195 465.512C399.779 466.504 397.163 467 394.347 467H383.475ZM391.251 460.04H393.483C395.275 460.04 396.931 459.72 398.451 459.08C399.971 458.44 401.291 457.544 402.411 456.392C403.531 455.24 404.403 453.888 405.027 452.336C405.651 450.768 405.963 449.056 405.963 447.2C405.963 445.36 405.651 443.664 405.027 442.112C404.403 440.544 403.531 439.184 402.411 438.032C401.291 436.864 399.971 435.96 398.451 435.32C396.931 434.68 395.275 434.36 393.483 434.36H391.251V460.04Z" fill="white"/>
<defs>
<linearGradient id="paint0_linear_4072_32950" x1="225" y1="296" x2="225" y2="2.31672e-05" gradientUnits="userSpaceOnUse">
<stop offset="0.0770957" stop-color="white" stop-opacity="0"/>
<stop offset="1" stop-color="white" stop-opacity="0.25"/>
</linearGradient>
<linearGradient id="paint1_linear_4072_32950" x1="225" y1="259" x2="224.505" y2="314.011" gradientUnits="userSpaceOnUse">
<stop stop-color="white"/>
<stop offset="1" stop-color="#C4C4C4" stop-opacity="0"/>
</linearGradient>
</defs>
</svg>
